<svg xmlns="http://www.w3.org/2000/svg" viewBox="0 0 128 128" role="img" aria-labelledby="title">
  <title id="title">MiniPainterHub</title>
  <rect width="128" height="128" rx="30" fill="#1F5B52"/>
  <circle cx="64" cy="63" r="39" fill="none" stroke="#FCFBF7" stroke-opacity=".86" stroke-width="7"/>
  <g transform="rotate(43 64 64)">
    <rect x="60" y="38" width="8" height="63" rx="4" fill="#B86A43"/>
    <rect x="59" y="24" width="10" height="19" rx="2.5" fill="#C49B48"/>
    <path d="M59 25c1-8 3-14 5-19 3 5 5 11 5 19z" fill="#172127"/>
  </g>
  <circle cx="64" cy="48" r="11" fill="#FCFBF7"/>
  <path d="M53 46c2-9 8-14 15-14 5 0 9 2 12 6-5 0-10 1-14 4-3 3-5 6-6 9-2-2-4-4-7-5z" fill="#B86A43"/>
  <path d="M48 82c2-16 8-24 16-24 9 0 15 8 17 24z" fill="#FCFBF7"/>
  <path d="M53 82h22l5 10H48z" fill="#C49B48"/>
  <rect x="44" y="91" width="40" height="9" rx="4.5" fill="#FCFBF7"/>
</svg>
