<svg xmlns="http://www.w3.org/2000/svg" viewBox="0 0 64 64" fill="none">
  <circle cx="32" cy="32" r="28" fill="#F3EFE6" stroke="#1F5B52" stroke-width="3.5"/>
  <path d="M36.5 55c1.3-10.9 5-17.2 11.1-17.2 6.5 0 10.6 4.4 10.6 9.8 0 6.5-6.2 10.3-15.6 10.3-2.6 0-4.5-.8-6.1-2.9Z" fill="#1F5B52"/>
  <circle cx="45.1" cy="44.8" r="3.1" fill="#E4C27D"/>
  <circle cx="52.4" cy="49.5" r="3" fill="#C49B48"/>
  <circle cx="43.5" cy="53.1" r="2.8" fill="#B86A43"/>
  <path d="M27.6 26.3h8.8l1.1 10.2h-11l1.1-10.2Z" fill="#E4B654" stroke="#172127" stroke-width="2.2" stroke-linejoin="round"/>
  <rect x="26.6" y="23.5" width="10.8" height="4.2" rx="1.3" fill="#C49B48" stroke="#172127" stroke-width="2.1"/>
  <rect x="25.6" y="34.7" width="12.8" height="4.1" rx="1.3" fill="#C49B48" stroke="#172127" stroke-width="2.1"/>
  <path d="M27.2 37.5h9.6c-.4 7.1-.9 12.9-2.1 18.6-.5 2.3-1.4 3.7-2.7 3.7-1.3 0-2.2-1.4-2.7-3.7-1.2-5.7-1.7-11.5-2.1-18.6Z" fill="#1F5B52" stroke="#172127" stroke-width="2.1"/>
  <path d="M32 23.8c-4.3-3.7-4.4-7.2-1.4-10.8 2.4-2.8 4.6-4.8 5.4-8.2 1 4.1 3.2 7.3 2.8 11.2-.3 3.6-2.3 6.4-5.4 8.6L32 23.8Z" fill="#805B2B" stroke="#172127" stroke-width="2.1" stroke-linejoin="round"/>
  <path d="M33.5 22.8c-.8-3.5.2-6.4 1.8-9.3.7-1.4 1.2-2.7 1.4-4 .9 4.8 1.2 9.2-3.2 13.3Z" fill="#C49B48"/>
</svg>
