<svg xmlns="http://www.w3.org/2000/svg" viewBox="0 0 120 120" fill="none">
  <path d="M101.5 89.5a51 51 0 1 0-82 12" stroke="#1F5B52" stroke-width="3.6" stroke-linecap="round"/>

  <path d="M38.5 21.5c.7 5.2 2.9 7.5 7.8 8.3-4.9.8-7.1 3.1-7.8 8.3-.8-5.2-3-7.5-7.9-8.3 4.9-.8 7.1-3.1 7.9-8.3Z" fill="#C49B48"/>
  <path d="M81.5 21.5c.7 5.2 2.9 7.5 7.8 8.3-4.9.8-7.1 3.1-7.8 8.3-.8-5.2-3-7.5-7.9-8.3 4.9-.8 7.1-3.1 7.9-8.3Z" fill="#C49B48"/>

  <path d="M13.2 49.1c0-8.5 6.4-14.6 15.7-14.6 9.2 0 15.7 6.1 15.7 14.6 0 5.1-2.4 9.2-6.5 11.7.8 2.3 2.1 4.5 4.2 6.3-4.7-.6-8.4-2.2-10.8-4.1-.9.1-1.7.2-2.6.2-9.3 0-15.7-5.7-15.7-14.1Z" fill="#8EA486"/>
  <path d="M75.4 49.1c0-8.5 6.4-14.6 15.7-14.6 9.2 0 15.7 6.1 15.7 14.6 0 8.4-6.4 14.1-15.7 14.1-.9 0-1.7-.1-2.6-.2-2.4 1.9-6.1 3.5-10.8 4.1 2.1-1.8 3.4-4 4.2-6.3-4.1-2.5-6.5-6.6-6.5-11.7Z" fill="#E4C27D"/>

  <circle cx="24.2" cy="74.4" r="8.4" fill="#224B3A"/>
  <path d="M12 100.2c.5-11.5 6.8-18.7 15.7-18.7 10.4 0 18.7 9.7 19.1 28.1-15.5-2.7-27-6-34.8-9.4Z" fill="#8EA486"/>

  <circle cx="95.5" cy="74.2" r="8.4" fill="#C99639"/>
  <path d="M93.2 84.8c9.2-.6 15.8 5.9 16.1 14.8-3 3.2-7 5.9-11.8 8.1 1.5-7.2-.3-14.8-4.3-22.9Z" fill="#C96E35"/>
  <path d="M67.9 110c2.6-17.5 9.3-27.8 20.9-27.8 11.1 0 18.3 8.1 18.3 17.1 0 10.7-11 16.8-27.4 16.8-4.6 0-8.6-1.4-11.8-6.1Z" fill="#214F3A"/>
  <circle cx="81.3" cy="93.1" r="5.6" fill="#F0D18E"/>
  <circle cx="95.6" cy="99.1" r="5.4" fill="#D8A647"/>
  <circle cx="78.2" cy="107.1" r="5.3" fill="#D97938"/>

  <path d="M55.5 45.5h9l2.2 14.8H53.3l2.2-14.8Z" fill="#F3C96C" stroke="#172127" stroke-width="2.1" stroke-linejoin="round"/>
  <path d="m57.5 46 1.6 13.4h-3.6L57.5 46Z" fill="#FFF1C5"/>
  <path d="m62.5 46-1.4 13.4h3.4L62.5 46Z" fill="#B77D2D" opacity=".75"/>
  <rect x="54.7" y="42.5" width="10.7" height="4.2" rx="1.4" fill="#D6A443" stroke="#172127" stroke-width="2.1"/>
  <rect x="52.9" y="59" width="14.2" height="4.1" rx="1.5" fill="#C99A3E" stroke="#172127" stroke-width="2.1"/>
  <path d="M54.3 62.4h11.4c-.5 11.5-1.1 24.3-2.7 39.5-.6 6.1-1.5 10.9-3 10.9-1.6 0-2.5-4.8-3.1-10.9-1.5-15.2-2.1-28-2.6-39.5Z" fill="#173E30" stroke="#172127" stroke-width="2.1" stroke-linejoin="round"/>
  <path d="M57 64.7c-.1 15.1.4 30.2 1.7 42.6.3 2.5.7 3.8 1.1 3.9-.7-1.2-1.1-5.2-1.1-11.1V64.7H57Z" fill="#6B8F74" opacity=".75"/>
  <path d="M60 42.8c-5.3-5.8-5.5-11.4-1.7-17.5 3.5-5.6 7.7-9 9.8-14.8 1 6.7 4.4 11.8 4.6 18.4.2 6.2-2.3 11.1-7.5 15.2L60 42.8Z" fill="#765126" stroke="#172127" stroke-width="2.1" stroke-linejoin="round"/>
  <path d="M62.5 41.9c-2.7-5-2.3-10.3.4-15.7 2.1-4.2 4.4-7.1 5.1-11.1.6 7.2 1.3 12.7-.6 18.7-1.1 3.4-2.6 6.1-4.9 8.1Z" fill="#A87735"/>
  <path d="M66.2 41.7c1.5-4.2 2.3-8.4 2-12.4-.2-3.3-.1-6.2.1-8.9 2.2 7.7 3 15.2-2.1 21.3Z" fill="#3D3522"/>
  <path d="M59.9 39.3c-1.2-5.6-.4-9.8 2.3-14.2" stroke="#C29658" stroke-width="1.25" stroke-linecap="round"/>
</svg>
