<svg xmlns="http://www.w3.org/2000/svg" viewBox="0 0 120 120" fill="none">
  <g fill="#172127">
    <path d="M38.5 21.5c.7 5.2 2.9 7.5 7.8 8.3-4.9.8-7.1 3.1-7.8 8.3-.8-5.2-3-7.5-7.9-8.3 4.9-.8 7.1-3.1 7.9-8.3ZM81.5 21.5c.7 5.2 2.9 7.5 7.8 8.3-4.9.8-7.1 3.1-7.8 8.3-.8-5.2-3-7.5-7.9-8.3 4.9-.8 7.1-3.1 7.9-8.3Z"/>
    <path fill-rule="evenodd" d="M13.2 49.1c0-8.5 6.4-14.6 15.7-14.6 9.2 0 15.7 6.1 15.7 14.6 0 5.1-2.4 9.2-6.5 11.7.8 2.3 2.1 4.5 4.2 6.3-4.7-.6-8.4-2.2-10.8-4.1-.9.1-1.7.2-2.6.2-9.3 0-15.7-5.7-15.7-14.1Zm62.2 0c0-8.5 6.4-14.6 15.7-14.6 9.2 0 15.7 6.1 15.7 14.6 0 8.4-6.4 14.1-15.7 14.1-.9 0-1.7-.1-2.6-.2-2.4 1.9-6.1 3.5-10.8 4.1 2.1-1.8 3.4-4 4.2-6.3-4.1-2.5-6.5-6.6-6.5-11.7Z"/>
    <circle cx="24.2" cy="74.4" r="8.4"/>
    <path d="M12 100.2c.5-11.5 6.8-18.7 15.7-18.7 10.4 0 18.7 9.7 19.1 28.1-15.5-2.7-27-6-34.8-9.4ZM93.2 84.8c9.2-.6 15.8 5.9 16.1 14.8-3 3.2-7 5.9-11.8 8.1 1.5-7.2-.3-14.8-4.3-22.9Z"/>
    <circle cx="95.5" cy="74.2" r="8.4"/>
    <path fill-rule="evenodd" d="M67.9 110c2.6-17.5 9.3-27.8 20.9-27.8 11.1 0 18.3 8.1 18.3 17.1 0 10.7-11 16.8-27.4 16.8-4.6 0-8.6-1.4-11.8-6.1Zm13.4-11.3a5.6 5.6 0 1 0 0-11.2 5.6 5.6 0 0 0 0 11.2Zm14.3 5.8a5.4 5.4 0 1 0 0-10.8 5.4 5.4 0 0 0 0 10.8Zm-17.4 7.9a5.3 5.3 0 1 0 0-10.6 5.3 5.3 0 0 0 0 10.6Z" clip-rule="evenodd"/>
  </g>
  <path d="M101.5 89.5a51 51 0 1 0-82 12" stroke="#172127" stroke-width="3.6" stroke-linecap="round"/>
  <path d="M55.5 45.5h9l2.2 14.8H53.3l2.2-14.8Z" fill="#172127"/>
  <rect x="53.8" y="41.6" width="12.4" height="6" rx="2" fill="#172127"/>
  <rect x="52" y="58.1" width="16" height="5.9" rx="2" fill="#172127"/>
  <path d="M54.3 62.4h11.4c-.5 11.5-1.1 24.3-2.7 39.5-.6 6.1-1.5 10.9-3 10.9-1.6 0-2.5-4.8-3.1-10.9-1.5-15.2-2.1-28-2.6-39.5ZM60 42.8c-5.3-5.8-5.5-11.4-1.7-17.5 3.5-5.6 7.7-9 9.8-14.8 1 6.7 4.4 11.8 4.6 18.4.2 6.2-2.3 11.1-7.5 15.2L60 42.8Z" fill="#172127"/>
</svg>
